<svg id="Layer_1" data-name="Layer 1" xmlns="http://www.w3.org/2000/svg" width="37.50788" height="37.4" viewBox="0 0 37.50788 37.4">
  <defs>
    <style>
      .cls-1 {
        fill: #555;
      }
    </style>
  </defs>
  <g>
    <path class="cls-1" d="M31.6,7.5h3.5c1.3,0,2.4,1.4,2.4,3V37.4H31.6" transform="translate(0.00788)"/>
    <path class="cls-1" d="M6.2,7.5H2.5a2.80745,2.80745,0,0,0-2.5,3V37.4H6.1" transform="translate(0.00788)"/>
    <g>
      <rect class="cls-1" x="18.10788" y="21" width="1.7" height="1.7"/>
      <rect class="cls-1" x="18.10788" y="13.7" width="1.7" height="1.7"/>
      <rect class="cls-1" x="11.70788" y="6.5" width="1.7" height="1.7"/>
      <rect class="cls-1" x="11.70788" y="21" width="1.7" height="1.7"/>
      <rect class="cls-1" x="18.10788" y="6.5" width="1.7" height="1.7"/>
      <rect class="cls-1" x="11.70788" y="13.7" width="1.7" height="1.7"/>
      <path class="cls-1" d="M27.4,0H10.3A2.90208,2.90208,0,0,0,7.4,2.9V37.3H30.3V3A2.98922,2.98922,0,0,0,27.4,0ZM14.8,23.3a.68355.68355,0,0,1-.66667.7q-.01666.00041-.03333,0H11a.68354.68354,0,0,1-.7-.66667q-.00041-.01666,0-.03333V20.2a.68355.68355,0,0,1,.66667-.7q.01666-.00041.03333,0h3.1a.68354.68354,0,0,1,.7.66667q.0004.01666,0,.03333Zm0-7.2a.68355.68355,0,0,1-.66667.7q-.01666.00041-.03333,0H11a.68354.68354,0,0,1-.7-.66667q-.00041-.01667,0-.03333V13a.68354.68354,0,0,1,.66667-.7q.01666-.00041.03333,0h3.1a.68354.68354,0,0,1,.7.66667q.0004.01666,0,.03333Zm0-7.2a.68354.68354,0,0,1-.66667.7q-.01666.00041-.03333,0H11a.68354.68354,0,0,1-.7-.66668q-.00041-.01665,0-.03332V5.8a.68354.68354,0,0,1,.66667-.7q.01666-.0004.03333,0h3.1a.84234.84234,0,0,1,.7.7Zm6.4,14.4a.68355.68355,0,0,1-.66667.7q-.01666.00041-.03333,0H17.4a.68354.68354,0,0,1-.7-.66667q-.00041-.01666,0-.03333V20.2a.68355.68355,0,0,1,.66667-.7q.01667-.00041.03333,0h3.1a.68354.68354,0,0,1,.7.66667q.00041.01666,0,.03333Zm0-7.2a.68355.68355,0,0,1-.66667.7q-.01666.00041-.03333,0H17.4a.68354.68354,0,0,1-.7-.66667q-.00041-.01667,0-.03333V13a.68354.68354,0,0,1,.66667-.7q.01667-.00041.03333,0h3.1a.68354.68354,0,0,1,.7.66667q.00041.01666,0,.03333Zm0-7.2a.68354.68354,0,0,1-.66667.7q-.01666.00041-.03333,0H17.4a.68354.68354,0,0,1-.7-.66667q-.00041-.01667,0-.03333V5.8a.68354.68354,0,0,1,.66667-.7q.01667-.0004.03333,0h3.1a.68354.68354,0,0,1,.7.66667q.00041.01666,0,.03333Zm6.3,14.4a.68355.68355,0,0,1-.66667.7q-.01666.00041-.03333,0h-3a.68354.68354,0,0,1-.7-.66667q-.00041-.01666,0-.03333V20.2a.68355.68355,0,0,1,.66667-.7q.01666-.00041.03333,0h3a.68354.68354,0,0,1,.7.66667q.00041.01666,0,.03333Zm0-7.2a.68355.68355,0,0,1-.66667.7q-.01666.00041-.03333,0h-3a.68354.68354,0,0,1-.7-.66667q-.00041-.01667,0-.03333V13a.68354.68354,0,0,1,.66667-.7q.01666-.00041.03333,0h3a.68354.68354,0,0,1,.7.66667q.00041.01666,0,.03333Zm0-7.2a.68354.68354,0,0,1-.66667.7q-.01666.00041-.03333,0h-3a.68354.68354,0,0,1-.7-.66667q-.00041-.01667,0-.03333V5.8a.68354.68354,0,0,1,.66667-.7q.01666-.0004.03333,0h3a.68354.68354,0,0,1,.7.66667q.00041.01666,0,.03333Z" transform="translate(0.00788)"/>
      <rect class="cls-1" x="24.50788" y="6.5" width="1.7" height="1.7"/>
      <rect class="cls-1" x="24.50788" y="13.7" width="1.7" height="1.7"/>
      <rect class="cls-1" x="24.50788" y="21" width="1.7" height="1.7"/>
    </g>
  </g>
</svg>
