<svg id="Layer_1" data-name="Layer 1" xmlns="http://www.w3.org/2000/svg" width="40" height="40" viewBox="0 0 40 40">
  <defs>
    <style>
      .cls-1 {
        fill: #555;
      }
    </style>
  </defs>
  <title>Artboard 1</title>
  <path class="cls-1" d="M34.2,2.52H24.35a9.13,9.13,0,0,0-5.61,2.32L3.47,20.1a3.31,3.31,0,0,0,0,4.65L15.25,36.52a3.3,3.3,0,0,0,4.65,0L35.16,21.26a9.13,9.13,0,0,0,2.32-5.61V5.8A3.29,3.29,0,0,0,34.2,2.52ZM29.83,13.44a3.28,3.28,0,1,1,3.28-3.27,3.26,3.26,0,0,1-3.28,3.27Zm0,0"/>
</svg>
