<svg id="Layer_1" data-name="Layer 1" xmlns="http://www.w3.org/2000/svg" width="40" height="40" viewBox="0 0 40 40">
  <defs>
    <style>
      .cls-1 {
        fill: #555;
      }
    </style>
  </defs>
  <path class="cls-1" d="M35.5785,14.01271l.27319-.633a.70537.70537,0,0,0-1.29525-.559l-.27214.63064a8.33818,8.33818,0,0,0-10.328,4.59365.70536.70536,0,0,0,.36761.92714l6.37437,2.75849L25.286,34.10317a32.79933,32.79933,0,0,0-8.34813-.16941L12.66844,15.24159l3.80473-.88944.00172-.0008,6.35986-1.48686a.70547.70547,0,0,0,.52656-.84742A11.80843,11.80843,0,0,0,9.83909,3.06077L9.54173,1.789a.70548.70548,0,0,0-1.374.32086l.29749,1.2723A11.809,11.809,0,0,0,.31506,17.40474a.7044.7044,0,0,0,.84742.52656l6.36059-1.487.001-.00012,3.77009-.88132L15.53,34.10784A34.43433,34.43433,0,0,0,4.79921,37.43577a.70553.70553,0,0,0,.346,1.32034h.00246l29.56334-.1122a.70571.70571,0,0,0,.32578-1.33019A30.77744,30.77744,0,0,0,26.71532,34.356L31.993,22.29088l2.26865.98183.00037.00006,4.129,1.78681a.70522.70522,0,0,0,.92764-.3681A8.37648,8.37648,0,0,0,35.5785,14.01271Zm-29.04956,1.215L1.55125,16.39147A10.40323,10.40323,0,0,1,7.22466,5.373C5.51875,8.59429,6.093,13.05746,6.52894,15.22768Zm5.31-10.94075a10.44633,10.44633,0,0,1,9.96485,7.36942L16.826,12.82014c-.57233-2.14169-2.03982-6.404-5.00358-8.53229ZM28.38064,19.19,25.563,17.97067a6.92286,6.92286,0,0,1,6.6507-3.52022A11.883,11.883,0,0,0,28.38064,19.19Zm9.8893,4.27955-2.81668-1.21891a11.91526,11.91526,0,0,0,.821-6.03609A6.96752,6.96752,0,0,1,38.26994,23.46956Z"/>
</svg>
