<svg id="Layer_1" data-name="Layer 1" xmlns="http://www.w3.org/2000/svg" width="40" height="40" viewBox="0 0 40 40">
  <defs>
    <style>
      .cls-1 {
        fill: #555;
      }
    </style>
  </defs>
  <title>Artboard 11</title>
  <g>
    <path class="cls-1" d="M24,22.31a1.58,1.58,0,0,0-1.13.46,1.61,1.61,0,0,0-.47,1.13A1.59,1.59,0,0,0,22.88,25a1.64,1.64,0,0,0,2.26,0,1.61,1.61,0,0,0,0-2.26A1.58,1.58,0,0,0,24,22.31Z"/>
    <path class="cls-1" d="M17.16,17.05h0a1.6,1.6,0,1,0-2.25,0A1.61,1.61,0,0,0,17.16,17.05Z"/>
    <path class="cls-1" d="M20.09,1.15A18.8,18.8,0,1,0,38.79,20,18.86,18.86,0,0,0,20.09,1.15ZM13.92,13.81a3,3,0,0,1,4.23,0,3,3,0,0,1,0,4.23h0a3,3,0,1,1-4.23-4.23ZM26.13,26a3,3,0,1,1-4.24-4.24,3.08,3.08,0,0,1,4.24,0A3,3,0,0,1,26.13,26Zm1.54-12.77L13.29,27.64a.69.69,0,0,1-.5.2.66.66,0,0,1-.49-.2.69.69,0,0,1,0-1L26.68,12.26a.71.71,0,0,1,1,0A.69.69,0,0,1,27.67,13.25Z"/>
  </g>
</svg>
